<?xml version="1.0" encoding="UTF-8" standalone="no"?>
<!DOCTYPE svg PUBLIC "-//W3C//DTD SVG 1.1//EN"
 "http://www.w3.org/Graphics/SVG/1.1/DTD/svg11.dtd">
<!-- Generated by graphviz version 2.47.0 (20210316.0004)
 -->
<!-- Title: dbml Pages: 1 -->
<svg width="1921pt" height="3209pt"
 viewBox="0.00 0.00 1921.31 3208.92" xmlns="http://www.w3.org/2000/svg" xmlns:xlink="http://www.w3.org/1999/xlink">
<g id="graph0" class="graph" transform="scale(1 1) rotate(0) translate(4 3204.92)">
<title>dbml</title>
<!-- Brand -->
<g id="Brand" class="node">
<title>Brand</title>
<ellipse fill="none" stroke="black" stroke-width="0" cx="1703.3" cy="-2011.39" rx="210.02" ry="130.22"/>
<polygon fill="#1d71b8" stroke="transparent" points="1557.3,-2041.39 1557.3,-2101.39 1850.3,-2101.39 1850.3,-2041.39 1557.3,-2041.39"/>
<polygon fill="none" stroke="#29235c" points="1557.3,-2041.39 1557.3,-2101.39 1850.3,-2101.39 1850.3,-2041.39 1557.3,-2041.39"/>
<text text-anchor="start" x="1598.87" y="-2062.59" font-family="Helvetica,sans-Serif" font-weight="bold" font-size="32.00" fill="#ffffff"> &#160;&#160;&#160;&#160;&#160;&#160;Brand &#160;&#160;&#160;&#160;&#160;&#160;</text>
<polygon fill="#e7e2dd" stroke="transparent" points="1557.3,-1981.39 1557.3,-2041.39 1850.3,-2041.39 1850.3,-1981.39 1557.3,-1981.39"/>
<polygon fill="none" stroke="#29235c" points="1557.3,-1981.39 1557.3,-2041.39 1850.3,-2041.39 1850.3,-1981.39 1557.3,-1981.39"/>
<text text-anchor="start" x="1568.3" y="-2002.59" font-family="Helvetica,sans-Serif" font-weight="bold" font-size="32.00" fill="#29235c">id</text>
<text text-anchor="start" x="1593.18" y="-2002.59" font-family="Helvetica,sans-Serif" font-size="32.00" fill="#29235c"> &#160;&#160;&#160;</text>
<text text-anchor="start" x="1697.08" y="-2002.59" font-family="Helvetica,sans-Serif" font-style="italic" font-size="32.00" fill="#29235c">INTEGER</text>
<polygon fill="#e7e2dd" stroke="transparent" points="1557.3,-1921.39 1557.3,-1981.39 1850.3,-1981.39 1850.3,-1921.39 1557.3,-1921.39"/>
<polygon fill="none" stroke="#29235c" points="1557.3,-1921.39 1557.3,-1981.39 1850.3,-1981.39 1850.3,-1921.39 1557.3,-1921.39"/>
<text text-anchor="start" x="1568" y="-1941.59" font-family="Helvetica,sans-Serif" font-size="32.00" fill="#29235c">name &#160;&#160;&#160;</text>
<text text-anchor="start" x="1683.08" y="-1942.59" font-family="Helvetica,sans-Serif" font-style="italic" font-size="32.00" fill="#29235c">VARCHAR</text>
<polygon fill="none" stroke="#29235c" stroke-width="2" points="1555.8,-1920.39 1555.8,-2102.39 1850.8,-2102.39 1850.8,-1920.39 1555.8,-1920.39"/>
</g>
<!-- Car -->
<g id="Car" class="node">
<title>Car</title>
<ellipse fill="none" stroke="black" stroke-width="0" cx="1100.2" cy="-1921.39" rx="357.18" ry="257.27"/>
<polygon fill="#1d71b8" stroke="transparent" points="850.2,-2041.39 850.2,-2101.39 1351.2,-2101.39 1351.2,-2041.39 850.2,-2041.39"/>
<polygon fill="none" stroke="#29235c" points="850.2,-2041.39 850.2,-2101.39 1351.2,-2101.39 1351.2,-2041.39 850.2,-2041.39"/>
<text text-anchor="start" x="1012.67" y="-2062.59" font-family="Helvetica,sans-Serif" font-weight="bold" font-size="32.00" fill="#ffffff"> &#160;&#160;&#160;&#160;&#160;&#160;Car &#160;&#160;&#160;&#160;&#160;&#160;</text>
<polygon fill="#e7e2dd" stroke="transparent" points="850.2,-1981.39 850.2,-2041.39 1351.2,-2041.39 1351.2,-1981.39 850.2,-1981.39"/>
<polygon fill="none" stroke="#29235c" points="850.2,-1981.39 850.2,-2041.39 1351.2,-2041.39 1351.2,-1981.39 850.2,-1981.39"/>
<text text-anchor="start" x="861.2" y="-2002.59" font-family="Helvetica,sans-Serif" font-weight="bold" font-size="32.00" fill="#29235c">id</text>
<text text-anchor="start" x="886.09" y="-2002.59" font-family="Helvetica,sans-Serif" font-size="32.00" fill="#29235c"> &#160;&#160;&#160;</text>
<text text-anchor="start" x="1197.98" y="-2002.59" font-family="Helvetica,sans-Serif" font-style="italic" font-size="32.00" fill="#29235c">INTEGER</text>
<polygon fill="#e7e2dd" stroke="transparent" points="850.2,-1921.39 850.2,-1981.39 1351.2,-1981.39 1351.2,-1921.39 850.2,-1921.39"/>
<polygon fill="none" stroke="#29235c" points="850.2,-1921.39 850.2,-1981.39 1351.2,-1981.39 1351.2,-1921.39 850.2,-1921.39"/>
<text text-anchor="start" x="861.2" y="-1941.59" font-family="Helvetica,sans-Serif" font-size="32.00" fill="#29235c">model &#160;&#160;&#160;</text>
<text text-anchor="start" x="1183.77" y="-1942.59" font-family="Helvetica,sans-Serif" font-style="italic" font-size="32.00" fill="#29235c">VARCHAR</text>
<polygon fill="#e7e2dd" stroke="transparent" points="850.2,-1861.39 850.2,-1921.39 1351.2,-1921.39 1351.2,-1861.39 850.2,-1861.39"/>
<polygon fill="none" stroke="#29235c" points="850.2,-1861.39 850.2,-1921.39 1351.2,-1921.39 1351.2,-1861.39 850.2,-1861.39"/>
<text text-anchor="start" x="861.2" y="-1881.59" font-family="Helvetica,sans-Serif" font-size="32.00" fill="#29235c">brand_id &#160;&#160;&#160;</text>
<text text-anchor="start" x="1197.98" y="-1882.59" font-family="Helvetica,sans-Serif" font-style="italic" font-size="32.00" fill="#29235c">INTEGER</text>
<polygon fill="#e7e2dd" stroke="transparent" points="850.2,-1801.39 850.2,-1861.39 1351.2,-1861.39 1351.2,-1801.39 850.2,-1801.39"/>
<polygon fill="none" stroke="#29235c" points="850.2,-1801.39 850.2,-1861.39 1351.2,-1861.39 1351.2,-1801.39 850.2,-1801.39"/>
<text text-anchor="start" x="861.2" y="-1821.59" font-family="Helvetica,sans-Serif" font-size="32.00" fill="#29235c">price &#160;&#160;&#160;</text>
<text text-anchor="start" x="1197.98" y="-1822.59" font-family="Helvetica,sans-Serif" font-style="italic" font-size="32.00" fill="#29235c">INTEGER</text>
<polygon fill="#e7e2dd" stroke="transparent" points="850.2,-1741.39 850.2,-1801.39 1351.2,-1801.39 1351.2,-1741.39 850.2,-1741.39"/>
<polygon fill="none" stroke="#29235c" points="850.2,-1741.39 850.2,-1801.39 1351.2,-1801.39 1351.2,-1741.39 850.2,-1741.39"/>
<text text-anchor="start" x="860.75" y="-1761.59" font-family="Helvetica,sans-Serif" font-size="32.00" fill="#29235c">year_of_manufacture &#160;&#160;&#160;</text>
<text text-anchor="start" x="1198.09" y="-1762.59" font-family="Helvetica,sans-Serif" font-style="italic" font-size="32.00" fill="#29235c">INTEGER</text>
<polygon fill="none" stroke="#29235c" stroke-width="2" points="848.7,-1740.39 848.7,-2102.39 1351.7,-2102.39 1351.7,-1740.39 848.7,-1740.39"/>
</g>
<!-- Car&#45;&gt;Brand -->
<!-- Car&#45;&gt;Brand -->
<g id="edge2" class="edge">
<title>Car:e&#45;&gt;Brand:w</title>
<path fill="none" stroke="#29235c" stroke-width="3" d="M1352.2,-1891.39C1453.93,-1891.39 1451.37,-2003.55 1546.17,-2011"/>
<polygon fill="#29235c" stroke="#29235c" stroke-width="3" points="1546.17,-2014.5 1556.3,-2011.39 1546.44,-2007.51 1546.17,-2014.5"/>
<text text-anchor="middle" x="1550.07" y="-2020.99" font-family="Helvetica,sans-Serif" font-size="32.00" fill="#29235c">*</text>
<text text-anchor="middle" x="1343.3" y="-1900.99" font-family="Helvetica,sans-Serif" font-size="32.00" fill="#29235c">1</text>
</g>
<!-- CarFeature -->
<g id="CarFeature" class="node">
<title>CarFeature</title>
<ellipse fill="none" stroke="black" stroke-width="0" cx="1100.2" cy="-3058.39" rx="292.98" ry="130.22"/>
<polygon fill="#1d71b8" stroke="transparent" points="895.2,-3088.39 895.2,-3148.39 1305.2,-3148.39 1305.2,-3088.39 895.2,-3088.39"/>
<polygon fill="none" stroke="#29235c" points="895.2,-3088.39 895.2,-3148.39 1305.2,-3148.39 1305.2,-3088.39 895.2,-3088.39"/>
<text text-anchor="start" x="957.05" y="-3109.59" font-family="Helvetica,sans-Serif" font-weight="bold" font-size="32.00" fill="#ffffff"> &#160;&#160;&#160;&#160;&#160;&#160;CarFeature &#160;&#160;&#160;&#160;&#160;&#160;</text>
<polygon fill="#e7e2dd" stroke="transparent" points="895.2,-3028.39 895.2,-3088.39 1305.2,-3088.39 1305.2,-3028.39 895.2,-3028.39"/>
<polygon fill="none" stroke="#29235c" points="895.2,-3028.39 895.2,-3088.39 1305.2,-3088.39 1305.2,-3028.39 895.2,-3028.39"/>
<text text-anchor="start" x="906.2" y="-3049.59" font-family="Helvetica,sans-Serif" font-weight="bold" font-size="32.00" fill="#29235c">id</text>
<text text-anchor="start" x="931.09" y="-3049.59" font-family="Helvetica,sans-Serif" font-size="32.00" fill="#29235c"> &#160;&#160;&#160;</text>
<text text-anchor="start" x="1151.98" y="-3049.59" font-family="Helvetica,sans-Serif" font-style="italic" font-size="32.00" fill="#29235c">INTEGER</text>
<polygon fill="#e7e2dd" stroke="transparent" points="895.2,-2968.39 895.2,-3028.39 1305.2,-3028.39 1305.2,-2968.39 895.2,-2968.39"/>
<polygon fill="none" stroke="#29235c" points="895.2,-2968.39 895.2,-3028.39 1305.2,-3028.39 1305.2,-2968.39 895.2,-2968.39"/>
<text text-anchor="start" x="905.71" y="-2988.59" font-family="Helvetica,sans-Serif" font-size="32.00" fill="#29235c">feature_name &#160;&#160;&#160;</text>
<text text-anchor="start" x="1137.98" y="-2989.59" font-family="Helvetica,sans-Serif" font-style="italic" font-size="32.00" fill="#29235c">VARCHAR</text>
<polygon fill="none" stroke="#29235c" stroke-width="2" points="894.2,-2967.39 894.2,-3149.39 1306.2,-3149.39 1306.2,-2967.39 894.2,-2967.39"/>
</g>
<!-- CarFeatureAssignment -->
<g id="CarFeatureAssignment" class="node">
<title>CarFeatureAssignment</title>
<ellipse fill="none" stroke="black" stroke-width="0" cx="353.55" cy="-3028.39" rx="338.91" ry="172.57"/>
<polygon fill="#1d71b8" stroke="transparent" points="116.55,-3088.39 116.55,-3148.39 591.55,-3148.39 591.55,-3088.39 116.55,-3088.39"/>
<polygon fill="none" stroke="#29235c" points="116.55,-3088.39 116.55,-3148.39 591.55,-3148.39 591.55,-3088.39 116.55,-3088.39"/>
<text text-anchor="start" x="127.34" y="-3109.59" font-family="Helvetica,sans-Serif" font-weight="bold" font-size="32.00" fill="#ffffff"> &#160;&#160;&#160;&#160;&#160;&#160;CarFeatureAssignment &#160;&#160;&#160;&#160;&#160;&#160;</text>
<polygon fill="#e7e2dd" stroke="transparent" points="116.55,-3028.39 116.55,-3088.39 591.55,-3088.39 591.55,-3028.39 116.55,-3028.39"/>
<polygon fill="none" stroke="#29235c" points="116.55,-3028.39 116.55,-3088.39 591.55,-3088.39 591.55,-3028.39 116.55,-3028.39"/>
<text text-anchor="start" x="127.55" y="-3049.59" font-family="Helvetica,sans-Serif" font-weight="bold" font-size="32.00" fill="#29235c">id</text>
<text text-anchor="start" x="152.44" y="-3049.59" font-family="Helvetica,sans-Serif" font-size="32.00" fill="#29235c"> &#160;&#160;&#160;</text>
<text text-anchor="start" x="438.34" y="-3049.59" font-family="Helvetica,sans-Serif" font-style="italic" font-size="32.00" fill="#29235c">INTEGER</text>
<polygon fill="#e7e2dd" stroke="transparent" points="116.55,-2968.39 116.55,-3028.39 591.55,-3028.39 591.55,-2968.39 116.55,-2968.39"/>
<polygon fill="none" stroke="#29235c" points="116.55,-2968.39 116.55,-3028.39 591.55,-3028.39 591.55,-2968.39 116.55,-2968.39"/>
<text text-anchor="start" x="127.55" y="-2988.59" font-family="Helvetica,sans-Serif" font-size="32.00" fill="#29235c">car_id &#160;&#160;&#160;</text>
<text text-anchor="start" x="438.34" y="-2989.59" font-family="Helvetica,sans-Serif" font-style="italic" font-size="32.00" fill="#29235c">INTEGER</text>
<polygon fill="#e7e2dd" stroke="transparent" points="116.55,-2908.39 116.55,-2968.39 591.55,-2968.39 591.55,-2908.39 116.55,-2908.39"/>
<polygon fill="none" stroke="#29235c" points="116.55,-2908.39 116.55,-2968.39 591.55,-2968.39 591.55,-2908.39 116.55,-2908.39"/>
<text text-anchor="start" x="127.55" y="-2928.59" font-family="Helvetica,sans-Serif" font-size="32.00" fill="#29235c">feature_id &#160;&#160;&#160;</text>
<text text-anchor="start" x="438.34" y="-2929.59" font-family="Helvetica,sans-Serif" font-style="italic" font-size="32.00" fill="#29235c">INTEGER</text>
<polygon fill="none" stroke="#29235c" stroke-width="2" points="115.05,-2907.39 115.05,-3149.39 592.05,-3149.39 592.05,-2907.39 115.05,-2907.39"/>
</g>
<!-- CarFeatureAssignment&#45;&gt;Car -->
<!-- CarFeatureAssignment&#45;&gt;Car -->
<g id="edge4" class="edge">
<title>CarFeatureAssignment:e&#45;&gt;Car:w</title>
<path fill="none" stroke="#29235c" stroke-width="3" d="M592.55,-2998.39C676.79,-2998.39 673.63,-2924.69 707.11,-2847.39 780.6,-2677.67 665.19,-2035.82 839.02,-2012.06"/>
<polygon fill="#29235c" stroke="#29235c" stroke-width="3" points="839.45,-2015.54 849.2,-2011.39 838.99,-2008.56 839.45,-2015.54"/>
<text text-anchor="middle" x="842.97" y="-2020.99" font-family="Helvetica,sans-Serif" font-size="32.00" fill="#29235c">*</text>
<text text-anchor="middle" x="583.66" y="-3007.99" font-family="Helvetica,sans-Serif" font-size="32.00" fill="#29235c">1</text>
</g>
<!-- CarFeatureAssignment&#45;&gt;CarFeature -->
<!-- CarFeatureAssignment&#45;&gt;CarFeature -->
<g id="edge6" class="edge">
<title>CarFeatureAssignment:e&#45;&gt;CarFeature:w</title>
<path fill="none" stroke="#29235c" stroke-width="3" d="M592.55,-2938.39C733.31,-2938.39 749.2,-3052.6 883.86,-3058.18"/>
<polygon fill="#29235c" stroke="#29235c" stroke-width="3" points="884.13,-3061.68 894.2,-3058.39 884.27,-3054.68 884.13,-3061.68"/>
<text text-anchor="middle" x="887.97" y="-3067.99" font-family="Helvetica,sans-Serif" font-size="32.00" fill="#29235c">*</text>
<text text-anchor="middle" x="583.66" y="-2947.99" font-family="Helvetica,sans-Serif" font-size="32.00" fill="#29235c">1</text>
</g>
<!-- Customer -->
<g id="Customer" class="node">
<title>Customer</title>
<ellipse fill="none" stroke="black" stroke-width="0" cx="1100.2" cy="-1349.39" rx="258.6" ry="214.92"/>
<polygon fill="#1d71b8" stroke="transparent" points="919.2,-1439.39 919.2,-1499.39 1281.2,-1499.39 1281.2,-1439.39 919.2,-1439.39"/>
<polygon fill="none" stroke="#29235c" points="919.2,-1439.39 919.2,-1499.39 1281.2,-1499.39 1281.2,-1439.39 919.2,-1439.39"/>
<text text-anchor="start" x="968.61" y="-1460.59" font-family="Helvetica,sans-Serif" font-weight="bold" font-size="32.00" fill="#ffffff"> &#160;&#160;&#160;&#160;&#160;&#160;Customer &#160;&#160;&#160;&#160;&#160;&#160;</text>
<polygon fill="#e7e2dd" stroke="transparent" points="919.2,-1379.39 919.2,-1439.39 1281.2,-1439.39 1281.2,-1379.39 919.2,-1379.39"/>
<polygon fill="none" stroke="#29235c" points="919.2,-1379.39 919.2,-1439.39 1281.2,-1439.39 1281.2,-1379.39 919.2,-1379.39"/>
<text text-anchor="start" x="930.2" y="-1400.59" font-family="Helvetica,sans-Serif" font-weight="bold" font-size="32.00" fill="#29235c">id</text>
<text text-anchor="start" x="955.09" y="-1400.59" font-family="Helvetica,sans-Serif" font-size="32.00" fill="#29235c"> &#160;&#160;&#160;</text>
<text text-anchor="start" x="1127.98" y="-1400.59" font-family="Helvetica,sans-Serif" font-style="italic" font-size="32.00" fill="#29235c">INTEGER</text>
<polygon fill="#e7e2dd" stroke="transparent" points="919.2,-1319.39 919.2,-1379.39 1281.2,-1379.39 1281.2,-1319.39 919.2,-1319.39"/>
<polygon fill="none" stroke="#29235c" points="919.2,-1319.39 919.2,-1379.39 1281.2,-1379.39 1281.2,-1319.39 919.2,-1319.39"/>
<text text-anchor="start" x="929.74" y="-1339.59" font-family="Helvetica,sans-Serif" font-size="32.00" fill="#29235c">first_name &#160;&#160;&#160;</text>
<text text-anchor="start" x="1113.98" y="-1340.59" font-family="Helvetica,sans-Serif" font-style="italic" font-size="32.00" fill="#29235c">VARCHAR</text>
<polygon fill="#e7e2dd" stroke="transparent" points="919.2,-1259.39 919.2,-1319.39 1281.2,-1319.39 1281.2,-1259.39 919.2,-1259.39"/>
<polygon fill="none" stroke="#29235c" points="919.2,-1259.39 919.2,-1319.39 1281.2,-1319.39 1281.2,-1259.39 919.2,-1259.39"/>
<text text-anchor="start" x="930.2" y="-1279.59" font-family="Helvetica,sans-Serif" font-size="32.00" fill="#29235c">last_name &#160;&#160;&#160;</text>
<text text-anchor="start" x="1113.98" y="-1280.59" font-family="Helvetica,sans-Serif" font-style="italic" font-size="32.00" fill="#29235c">VARCHAR</text>
<polygon fill="#e7e2dd" stroke="transparent" points="919.2,-1199.39 919.2,-1259.39 1281.2,-1259.39 1281.2,-1199.39 919.2,-1199.39"/>
<polygon fill="none" stroke="#29235c" points="919.2,-1199.39 919.2,-1259.39 1281.2,-1259.39 1281.2,-1199.39 919.2,-1199.39"/>
<text text-anchor="start" x="930.2" y="-1219.59" font-family="Helvetica,sans-Serif" font-size="32.00" fill="#29235c">email &#160;&#160;&#160;</text>
<text text-anchor="start" x="1113.77" y="-1220.59" font-family="Helvetica,sans-Serif" font-style="italic" font-size="32.00" fill="#29235c">VARCHAR</text>
<polygon fill="none" stroke="#29235c" stroke-width="2" points="918.2,-1198.39 918.2,-1500.39 1282.2,-1500.39 1282.2,-1198.39 918.2,-1198.39"/>
</g>
<!-- Dealer -->
<g id="Dealer" class="node">
<title>Dealer</title>
<ellipse fill="none" stroke="black" stroke-width="0" cx="1100.2" cy="-517.39" rx="231.45" ry="172.57"/>
<polygon fill="#1d71b8" stroke="transparent" points="939.2,-577.39 939.2,-637.39 1262.2,-637.39 1262.2,-577.39 939.2,-577.39"/>
<polygon fill="none" stroke="#29235c" points="939.2,-577.39 939.2,-637.39 1262.2,-637.39 1262.2,-577.39 939.2,-577.39"/>
<text text-anchor="start" x="991.34" y="-598.59" font-family="Helvetica,sans-Serif" font-weight="bold" font-size="32.00" fill="#ffffff"> &#160;&#160;&#160;&#160;&#160;&#160;Dealer &#160;&#160;&#160;&#160;&#160;&#160;</text>
<polygon fill="#e7e2dd" stroke="transparent" points="939.2,-517.39 939.2,-577.39 1262.2,-577.39 1262.2,-517.39 939.2,-517.39"/>
<polygon fill="none" stroke="#29235c" points="939.2,-517.39 939.2,-577.39 1262.2,-577.39 1262.2,-517.39 939.2,-517.39"/>
<text text-anchor="start" x="950.2" y="-538.59" font-family="Helvetica,sans-Serif" font-weight="bold" font-size="32.00" fill="#29235c">id</text>
<text text-anchor="start" x="975.09" y="-538.59" font-family="Helvetica,sans-Serif" font-size="32.00" fill="#29235c"> &#160;&#160;&#160;</text>
<text text-anchor="start" x="1108.98" y="-538.59" font-family="Helvetica,sans-Serif" font-style="italic" font-size="32.00" fill="#29235c">INTEGER</text>
<polygon fill="#e7e2dd" stroke="transparent" points="939.2,-457.39 939.2,-517.39 1262.2,-517.39 1262.2,-457.39 939.2,-457.39"/>
<polygon fill="none" stroke="#29235c" points="939.2,-457.39 939.2,-517.39 1262.2,-517.39 1262.2,-457.39 939.2,-457.39"/>
<text text-anchor="start" x="950.2" y="-477.59" font-family="Helvetica,sans-Serif" font-size="32.00" fill="#29235c">name &#160;&#160;&#160;</text>
<text text-anchor="start" x="1094.77" y="-478.59" font-family="Helvetica,sans-Serif" font-style="italic" font-size="32.00" fill="#29235c">VARCHAR</text>
<polygon fill="#e7e2dd" stroke="transparent" points="939.2,-397.39 939.2,-457.39 1262.2,-457.39 1262.2,-397.39 939.2,-397.39"/>
<polygon fill="none" stroke="#29235c" points="939.2,-397.39 939.2,-457.39 1262.2,-457.39 1262.2,-397.39 939.2,-397.39"/>
<text text-anchor="start" x="949.79" y="-417.59" font-family="Helvetica,sans-Serif" font-size="32.00" fill="#29235c">location &#160;&#160;&#160;</text>
<text text-anchor="start" x="1094.98" y="-418.59" font-family="Helvetica,sans-Serif" font-style="italic" font-size="32.00" fill="#29235c">VARCHAR</text>
<polygon fill="none" stroke="#29235c" stroke-width="2" points="937.7,-396.39 937.7,-638.39 1262.7,-638.39 1262.7,-396.39 937.7,-396.39"/>
</g>
<!-- Employee -->
<g id="Employee" class="node">
<title>Employee</title>
<ellipse fill="none" stroke="black" stroke-width="0" cx="353.55" cy="-257.39" rx="258.6" ry="257.27"/>
<polygon fill="#1d71b8" stroke="transparent" points="172.55,-377.39 172.55,-437.39 534.55,-437.39 534.55,-377.39 172.55,-377.39"/>
<polygon fill="none" stroke="#29235c" points="172.55,-377.39 172.55,-437.39 534.55,-437.39 534.55,-377.39 172.55,-377.39"/>
<text text-anchor="start" x="220.18" y="-398.59" font-family="Helvetica,sans-Serif" font-weight="bold" font-size="32.00" fill="#ffffff"> &#160;&#160;&#160;&#160;&#160;&#160;Employee &#160;&#160;&#160;&#160;&#160;&#160;</text>
<polygon fill="#e7e2dd" stroke="transparent" points="172.55,-317.39 172.55,-377.39 534.55,-377.39 534.55,-317.39 172.55,-317.39"/>
<polygon fill="none" stroke="#29235c" points="172.55,-317.39 172.55,-377.39 534.55,-377.39 534.55,-317.39 172.55,-317.39"/>
<text text-anchor="start" x="183.55" y="-338.59" font-family="Helvetica,sans-Serif" font-weight="bold" font-size="32.00" fill="#29235c">id</text>
<text text-anchor="start" x="208.44" y="-338.59" font-family="Helvetica,sans-Serif" font-size="32.00" fill="#29235c"> &#160;&#160;&#160;</text>
<text text-anchor="start" x="381.34" y="-338.59" font-family="Helvetica,sans-Serif" font-style="italic" font-size="32.00" fill="#29235c">INTEGER</text>
<polygon fill="#e7e2dd" stroke="transparent" points="172.55,-257.39 172.55,-317.39 534.55,-317.39 534.55,-257.39 172.55,-257.39"/>
<polygon fill="none" stroke="#29235c" points="172.55,-257.39 172.55,-317.39 534.55,-317.39 534.55,-257.39 172.55,-257.39"/>
<text text-anchor="start" x="183.55" y="-277.59" font-family="Helvetica,sans-Serif" font-size="32.00" fill="#29235c">dealer_id &#160;&#160;&#160;</text>
<text text-anchor="start" x="381.34" y="-278.59" font-family="Helvetica,sans-Serif" font-style="italic" font-size="32.00" fill="#29235c">INTEGER</text>
<polygon fill="#e7e2dd" stroke="transparent" points="172.55,-197.39 172.55,-257.39 534.55,-257.39 534.55,-197.39 172.55,-197.39"/>
<polygon fill="none" stroke="#29235c" points="172.55,-197.39 172.55,-257.39 534.55,-257.39 534.55,-197.39 172.55,-197.39"/>
<text text-anchor="start" x="183.09" y="-217.59" font-family="Helvetica,sans-Serif" font-size="32.00" fill="#29235c">first_name &#160;&#160;&#160;</text>
<text text-anchor="start" x="367.34" y="-218.59" font-family="Helvetica,sans-Serif" font-style="italic" font-size="32.00" fill="#29235c">VARCHAR</text>
<polygon fill="#e7e2dd" stroke="transparent" points="172.55,-137.39 172.55,-197.39 534.55,-197.39 534.55,-137.39 172.55,-137.39"/>
<polygon fill="none" stroke="#29235c" points="172.55,-137.39 172.55,-197.39 534.55,-197.39 534.55,-137.39 172.55,-137.39"/>
<text text-anchor="start" x="183.55" y="-157.59" font-family="Helvetica,sans-Serif" font-size="32.00" fill="#29235c">last_name &#160;&#160;&#160;</text>
<text text-anchor="start" x="367.34" y="-158.59" font-family="Helvetica,sans-Serif" font-style="italic" font-size="32.00" fill="#29235c">VARCHAR</text>
<polygon fill="#e7e2dd" stroke="transparent" points="172.55,-77.39 172.55,-137.39 534.55,-137.39 534.55,-77.39 172.55,-77.39"/>
<polygon fill="none" stroke="#29235c" points="172.55,-77.39 172.55,-137.39 534.55,-137.39 534.55,-77.39 172.55,-77.39"/>
<text text-anchor="start" x="183.55" y="-97.59" font-family="Helvetica,sans-Serif" font-size="32.00" fill="#29235c">position &#160;&#160;&#160;</text>
<text text-anchor="start" x="367.13" y="-98.59" font-family="Helvetica,sans-Serif" font-style="italic" font-size="32.00" fill="#29235c">VARCHAR</text>
<polygon fill="none" stroke="#29235c" stroke-width="2" points="171.55,-76.39 171.55,-438.39 535.55,-438.39 535.55,-76.39 171.55,-76.39"/>
</g>
<!-- Employee&#45;&gt;Dealer -->
<!-- Employee&#45;&gt;Dealer -->
<g id="edge8" class="edge">
<title>Employee:e&#45;&gt;Dealer:w</title>
<path fill="none" stroke="#29235c" stroke-width="3" d="M535.55,-287.39C745.14,-287.39 725.87,-539.08 928.08,-547.19"/>
<polygon fill="#29235c" stroke="#29235c" stroke-width="3" points="928.13,-550.69 938.2,-547.39 928.27,-543.69 928.13,-550.69"/>
<text text-anchor="middle" x="931.97" y="-518.59" font-family="Helvetica,sans-Serif" font-size="32.00" fill="#29235c">*</text>
<text text-anchor="middle" x="526.66" y="-258.59" font-family="Helvetica,sans-Serif" font-size="32.00" fill="#29235c">1</text>
</g>
<!-- Inventory -->
<g id="Inventory" class="node">
<title>Inventory</title>
<ellipse fill="none" stroke="black" stroke-width="0" cx="353.55" cy="-747.39" rx="236.76" ry="214.92"/>
<polygon fill="#1d71b8" stroke="transparent" points="188.55,-837.39 188.55,-897.39 519.55,-897.39 519.55,-837.39 188.55,-837.39"/>
<polygon fill="none" stroke="#29235c" points="188.55,-837.39 188.55,-897.39 519.55,-897.39 519.55,-837.39 188.55,-837.39"/>
<text text-anchor="start" x="226.01" y="-858.59" font-family="Helvetica,sans-Serif" font-weight="bold" font-size="32.00" fill="#ffffff"> &#160;&#160;&#160;&#160;&#160;&#160;Inventory &#160;&#160;&#160;&#160;&#160;&#160;</text>
<polygon fill="#e7e2dd" stroke="transparent" points="188.55,-777.39 188.55,-837.39 519.55,-837.39 519.55,-777.39 188.55,-777.39"/>
<polygon fill="none" stroke="#29235c" points="188.55,-777.39 188.55,-837.39 519.55,-837.39 519.55,-777.39 188.55,-777.39"/>
<text text-anchor="start" x="199.55" y="-798.59" font-family="Helvetica,sans-Serif" font-weight="bold" font-size="32.00" fill="#29235c">id</text>
<text text-anchor="start" x="224.44" y="-798.59" font-family="Helvetica,sans-Serif" font-size="32.00" fill="#29235c"> &#160;&#160;&#160;</text>
<text text-anchor="start" x="366.34" y="-798.59" font-family="Helvetica,sans-Serif" font-style="italic" font-size="32.00" fill="#29235c">INTEGER</text>
<polygon fill="#e7e2dd" stroke="transparent" points="188.55,-717.39 188.55,-777.39 519.55,-777.39 519.55,-717.39 188.55,-717.39"/>
<polygon fill="none" stroke="#29235c" points="188.55,-717.39 188.55,-777.39 519.55,-777.39 519.55,-717.39 188.55,-717.39"/>
<text text-anchor="start" x="199.47" y="-737.59" font-family="Helvetica,sans-Serif" font-size="32.00" fill="#29235c">dealer_id &#160;&#160;&#160;</text>
<text text-anchor="start" x="366.44" y="-738.59" font-family="Helvetica,sans-Serif" font-style="italic" font-size="32.00" fill="#29235c">INTEGER</text>
<polygon fill="#e7e2dd" stroke="transparent" points="188.55,-657.39 188.55,-717.39 519.55,-717.39 519.55,-657.39 188.55,-657.39"/>
<polygon fill="none" stroke="#29235c" points="188.55,-657.39 188.55,-717.39 519.55,-717.39 519.55,-657.39 188.55,-657.39"/>
<text text-anchor="start" x="199.55" y="-677.59" font-family="Helvetica,sans-Serif" font-size="32.00" fill="#29235c">car_id &#160;&#160;&#160;</text>
<text text-anchor="start" x="366.34" y="-678.59" font-family="Helvetica,sans-Serif" font-style="italic" font-size="32.00" fill="#29235c">INTEGER</text>
<polygon fill="#e7e2dd" stroke="transparent" points="188.55,-597.39 188.55,-657.39 519.55,-657.39 519.55,-597.39 188.55,-597.39"/>
<polygon fill="none" stroke="#29235c" points="188.55,-597.39 188.55,-657.39 519.55,-657.39 519.55,-597.39 188.55,-597.39"/>
<text text-anchor="start" x="199.55" y="-617.59" font-family="Helvetica,sans-Serif" font-size="32.00" fill="#29235c">quantity &#160;&#160;&#160;</text>
<text text-anchor="start" x="366.34" y="-618.59" font-family="Helvetica,sans-Serif" font-style="italic" font-size="32.00" fill="#29235c">INTEGER</text>
<polygon fill="none" stroke="#29235c" stroke-width="2" points="187.05,-596.39 187.05,-898.39 520.05,-898.39 520.05,-596.39 187.05,-596.39"/>
</g>
<!-- Inventory&#45;&gt;Car -->
<!-- Inventory&#45;&gt;Car -->
<g id="edge10" class="edge">
<title>Inventory:e&#45;&gt;Car:w</title>
<path fill="none" stroke="#29235c" stroke-width="3" d="M520.55,-687.39C671.57,-687.39 659.54,-828.06 707.11,-971.39 779.51,-1189.53 620.71,-1987.53 839.2,-2010.86"/>
<polygon fill="#29235c" stroke="#29235c" stroke-width="3" points="839.03,-2014.36 849.2,-2011.39 839.39,-2007.37 839.03,-2014.36"/>
<text text-anchor="middle" x="842.97" y="-1982.59" font-family="Helvetica,sans-Serif" font-size="32.00" fill="#29235c">*</text>
<text text-anchor="middle" x="511.66" y="-658.59" font-family="Helvetica,sans-Serif" font-size="32.00" fill="#29235c">1</text>
</g>
<!-- Inventory&#45;&gt;Dealer -->
<!-- Inventory&#45;&gt;Dealer -->
<g id="edge12" class="edge">
<title>Inventory:e&#45;&gt;Dealer:w</title>
<path fill="none" stroke="#29235c" stroke-width="3" d="M520.55,-747.39C722.94,-747.39 732.14,-553.97 928.11,-547.55"/>
<polygon fill="#29235c" stroke="#29235c" stroke-width="3" points="928.25,-551.05 938.2,-547.39 928.14,-544.05 928.25,-551.05"/>
<text text-anchor="middle" x="931.97" y="-556.99" font-family="Helvetica,sans-Serif" font-size="32.00" fill="#29235c">*</text>
<text text-anchor="middle" x="511.66" y="-718.59" font-family="Helvetica,sans-Serif" font-size="32.00" fill="#29235c">1</text>
</g>
<!-- Maintenance -->
<g id="Maintenance" class="node">
<title>Maintenance</title>
<ellipse fill="none" stroke="black" stroke-width="0" cx="353.55" cy="-2175.39" rx="345.55" ry="214.92"/>
<polygon fill="#1d71b8" stroke="transparent" points="111.55,-2265.39 111.55,-2325.39 596.55,-2325.39 596.55,-2265.39 111.55,-2265.39"/>
<polygon fill="none" stroke="#29235c" points="111.55,-2265.39 111.55,-2325.39 596.55,-2325.39 596.55,-2265.39 111.55,-2265.39"/>
<text text-anchor="start" x="200.22" y="-2286.59" font-family="Helvetica,sans-Serif" font-weight="bold" font-size="32.00" fill="#ffffff"> &#160;&#160;&#160;&#160;&#160;&#160;Maintenance &#160;&#160;&#160;&#160;&#160;&#160;</text>
<polygon fill="#e7e2dd" stroke="transparent" points="111.55,-2205.39 111.55,-2265.39 596.55,-2265.39 596.55,-2205.39 111.55,-2205.39"/>
<polygon fill="none" stroke="#29235c" points="111.55,-2205.39 111.55,-2265.39 596.55,-2265.39 596.55,-2205.39 111.55,-2205.39"/>
<text text-anchor="start" x="122.55" y="-2226.59" font-family="Helvetica,sans-Serif" font-weight="bold" font-size="32.00" fill="#29235c">id</text>
<text text-anchor="start" x="147.44" y="-2226.59" font-family="Helvetica,sans-Serif" font-size="32.00" fill="#29235c"> &#160;&#160;&#160;</text>
<text text-anchor="start" x="443.34" y="-2226.59" font-family="Helvetica,sans-Serif" font-style="italic" font-size="32.00" fill="#29235c">INTEGER</text>
<polygon fill="#e7e2dd" stroke="transparent" points="111.55,-2145.39 111.55,-2205.39 596.55,-2205.39 596.55,-2145.39 111.55,-2145.39"/>
<polygon fill="none" stroke="#29235c" points="111.55,-2145.39 111.55,-2205.39 596.55,-2205.39 596.55,-2145.39 111.55,-2145.39"/>
<text text-anchor="start" x="122.55" y="-2165.59" font-family="Helvetica,sans-Serif" font-size="32.00" fill="#29235c">car_id &#160;&#160;&#160;</text>
<text text-anchor="start" x="443.34" y="-2166.59" font-family="Helvetica,sans-Serif" font-style="italic" font-size="32.00" fill="#29235c">INTEGER</text>
<polygon fill="#e7e2dd" stroke="transparent" points="111.55,-2085.39 111.55,-2145.39 596.55,-2145.39 596.55,-2085.39 111.55,-2085.39"/>
<polygon fill="none" stroke="#29235c" points="111.55,-2085.39 111.55,-2145.39 596.55,-2145.39 596.55,-2085.39 111.55,-2085.39"/>
<text text-anchor="start" x="122.4" y="-2105.59" font-family="Helvetica,sans-Serif" font-size="32.00" fill="#29235c">last_serviced_date &#160;&#160;&#160;</text>
<text text-anchor="start" x="424.17" y="-2106.59" font-family="Helvetica,sans-Serif" font-style="italic" font-size="32.00" fill="#29235c">DATETIME</text>
<polygon fill="#e7e2dd" stroke="transparent" points="111.55,-2025.39 111.55,-2085.39 596.55,-2085.39 596.55,-2025.39 111.55,-2025.39"/>
<polygon fill="none" stroke="#29235c" points="111.55,-2025.39 111.55,-2085.39 596.55,-2085.39 596.55,-2025.39 111.55,-2025.39"/>
<text text-anchor="start" x="122.55" y="-2045.59" font-family="Helvetica,sans-Serif" font-size="32.00" fill="#29235c">service_details &#160;&#160;&#160;</text>
<text text-anchor="start" x="429.13" y="-2046.59" font-family="Helvetica,sans-Serif" font-style="italic" font-size="32.00" fill="#29235c">VARCHAR</text>
<polygon fill="none" stroke="#29235c" stroke-width="2" points="110.05,-2024.39 110.05,-2326.39 597.05,-2326.39 597.05,-2024.39 110.05,-2024.39"/>
</g>
<!-- Maintenance&#45;&gt;Car -->
<!-- Maintenance&#45;&gt;Car -->
<g id="edge14" class="edge">
<title>Maintenance:e&#45;&gt;Car:w</title>
<path fill="none" stroke="#29235c" stroke-width="3" d="M597.55,-2175.39C727.53,-2175.39 716.41,-2019.92 838.94,-2011.72"/>
<polygon fill="#29235c" stroke="#29235c" stroke-width="3" points="839.32,-2015.21 849.2,-2011.39 839.09,-2008.22 839.32,-2015.21"/>
<text text-anchor="middle" x="855.42" y="-2020.99" font-family="Helvetica,sans-Serif" font-size="32.00" fill="#29235c">*</text>
<text text-anchor="middle" x="588.66" y="-2184.99" font-family="Helvetica,sans-Serif" font-size="32.00" fill="#29235c">1</text>
</g>
<!-- Promotion -->
<g id="Promotion" class="node">
<title>Promotion</title>
<ellipse fill="none" stroke="black" stroke-width="0" cx="353.55" cy="-2623.39" rx="353.61" ry="214.92"/>
<polygon fill="#1d71b8" stroke="transparent" points="105.55,-2713.39 105.55,-2773.39 601.55,-2773.39 601.55,-2713.39 105.55,-2713.39"/>
<polygon fill="none" stroke="#29235c" points="105.55,-2713.39 105.55,-2773.39 601.55,-2773.39 601.55,-2713.39 105.55,-2713.39"/>
<text text-anchor="start" x="218.41" y="-2734.59" font-family="Helvetica,sans-Serif" font-weight="bold" font-size="32.00" fill="#ffffff"> &#160;&#160;&#160;&#160;&#160;&#160;Promotion &#160;&#160;&#160;&#160;&#160;&#160;</text>
<polygon fill="#e7e2dd" stroke="transparent" points="105.55,-2653.39 105.55,-2713.39 601.55,-2713.39 601.55,-2653.39 105.55,-2653.39"/>
<polygon fill="none" stroke="#29235c" points="105.55,-2653.39 105.55,-2713.39 601.55,-2713.39 601.55,-2653.39 105.55,-2653.39"/>
<text text-anchor="start" x="116.55" y="-2674.59" font-family="Helvetica,sans-Serif" font-weight="bold" font-size="32.00" fill="#29235c">id</text>
<text text-anchor="start" x="141.44" y="-2674.59" font-family="Helvetica,sans-Serif" font-size="32.00" fill="#29235c"> &#160;&#160;&#160;</text>
<text text-anchor="start" x="448.34" y="-2674.59" font-family="Helvetica,sans-Serif" font-style="italic" font-size="32.00" fill="#29235c">INTEGER</text>
<polygon fill="#e7e2dd" stroke="transparent" points="105.55,-2593.39 105.55,-2653.39 601.55,-2653.39 601.55,-2593.39 105.55,-2593.39"/>
<polygon fill="none" stroke="#29235c" points="105.55,-2593.39 105.55,-2653.39 601.55,-2653.39 601.55,-2593.39 105.55,-2593.39"/>
<text text-anchor="start" x="116.55" y="-2613.59" font-family="Helvetica,sans-Serif" font-size="32.00" fill="#29235c">car_id &#160;&#160;&#160;</text>
<text text-anchor="start" x="448.34" y="-2614.59" font-family="Helvetica,sans-Serif" font-style="italic" font-size="32.00" fill="#29235c">INTEGER</text>
<polygon fill="#e7e2dd" stroke="transparent" points="105.55,-2533.39 105.55,-2593.39 601.55,-2593.39 601.55,-2533.39 105.55,-2533.39"/>
<polygon fill="none" stroke="#29235c" points="105.55,-2533.39 105.55,-2593.39 601.55,-2593.39 601.55,-2533.39 105.55,-2533.39"/>
<text text-anchor="start" x="116.55" y="-2553.59" font-family="Helvetica,sans-Serif" font-size="32.00" fill="#29235c">description &#160;&#160;&#160;</text>
<text text-anchor="start" x="434.13" y="-2554.59" font-family="Helvetica,sans-Serif" font-style="italic" font-size="32.00" fill="#29235c">VARCHAR</text>
<polygon fill="#e7e2dd" stroke="transparent" points="105.55,-2473.39 105.55,-2533.39 601.55,-2533.39 601.55,-2473.39 105.55,-2473.39"/>
<polygon fill="none" stroke="#29235c" points="105.55,-2473.39 105.55,-2533.39 601.55,-2533.39 601.55,-2473.39 105.55,-2473.39"/>
<text text-anchor="start" x="116.27" y="-2493.59" font-family="Helvetica,sans-Serif" font-size="32.00" fill="#29235c">discount_percentage &#160;&#160;&#160;</text>
<text text-anchor="start" x="448.44" y="-2494.59" font-family="Helvetica,sans-Serif" font-style="italic" font-size="32.00" fill="#29235c">INTEGER</text>
<polygon fill="none" stroke="#29235c" stroke-width="2" points="104.55,-2472.39 104.55,-2774.39 602.55,-2774.39 602.55,-2472.39 104.55,-2472.39"/>
</g>
<!-- Promotion&#45;&gt;Car -->
<!-- Promotion&#45;&gt;Car -->
<g id="edge16" class="edge">
<title>Promotion:e&#45;&gt;Car:w</title>
<path fill="none" stroke="#29235c" stroke-width="3" d="M602.55,-2623.39C892.37,-2623.39 563.82,-2025.65 839.14,-2011.64"/>
<polygon fill="#29235c" stroke="#29235c" stroke-width="3" points="839.29,-2015.13 849.2,-2011.39 839.11,-2008.14 839.29,-2015.13"/>
<text text-anchor="middle" x="855.42" y="-1982.59" font-family="Helvetica,sans-Serif" font-size="32.00" fill="#29235c">*</text>
<text text-anchor="middle" x="593.66" y="-2632.99" font-family="Helvetica,sans-Serif" font-size="32.00" fill="#29235c">1</text>
</g>
<!-- Sale -->
<g id="Sale" class="node">
<title>Sale</title>
<ellipse fill="none" stroke="black" stroke-width="0" cx="353.55" cy="-1237.39" rx="266.66" ry="257.27"/>
<polygon fill="#1d71b8" stroke="transparent" points="167.55,-1357.39 167.55,-1417.39 540.55,-1417.39 540.55,-1357.39 167.55,-1357.39"/>
<polygon fill="none" stroke="#29235c" points="167.55,-1357.39 167.55,-1417.39 540.55,-1417.39 540.55,-1357.39 167.55,-1357.39"/>
<text text-anchor="start" x="259.79" y="-1378.59" font-family="Helvetica,sans-Serif" font-weight="bold" font-size="32.00" fill="#ffffff"> &#160;&#160;&#160;&#160;&#160;&#160;Sale &#160;&#160;&#160;&#160;&#160;&#160;</text>
<polygon fill="#e7e2dd" stroke="transparent" points="167.55,-1297.39 167.55,-1357.39 540.55,-1357.39 540.55,-1297.39 167.55,-1297.39"/>
<polygon fill="none" stroke="#29235c" points="167.55,-1297.39 167.55,-1357.39 540.55,-1357.39 540.55,-1297.39 167.55,-1297.39"/>
<text text-anchor="start" x="178.55" y="-1318.59" font-family="Helvetica,sans-Serif" font-weight="bold" font-size="32.00" fill="#29235c">id</text>
<text text-anchor="start" x="203.44" y="-1318.59" font-family="Helvetica,sans-Serif" font-size="32.00" fill="#29235c"> &#160;&#160;&#160;</text>
<text text-anchor="start" x="387.34" y="-1318.59" font-family="Helvetica,sans-Serif" font-style="italic" font-size="32.00" fill="#29235c">INTEGER</text>
<polygon fill="#e7e2dd" stroke="transparent" points="167.55,-1237.39 167.55,-1297.39 540.55,-1297.39 540.55,-1237.39 167.55,-1237.39"/>
<polygon fill="none" stroke="#29235c" points="167.55,-1237.39 167.55,-1297.39 540.55,-1297.39 540.55,-1237.39 167.55,-1237.39"/>
<text text-anchor="start" x="178.55" y="-1257.59" font-family="Helvetica,sans-Serif" font-size="32.00" fill="#29235c">car_id &#160;&#160;&#160;</text>
<text text-anchor="start" x="387.34" y="-1258.59" font-family="Helvetica,sans-Serif" font-style="italic" font-size="32.00" fill="#29235c">INTEGER</text>
<polygon fill="#e7e2dd" stroke="transparent" points="167.55,-1177.39 167.55,-1237.39 540.55,-1237.39 540.55,-1177.39 167.55,-1177.39"/>
<polygon fill="none" stroke="#29235c" points="167.55,-1177.39 167.55,-1237.39 540.55,-1237.39 540.55,-1177.39 167.55,-1177.39"/>
<text text-anchor="start" x="178.15" y="-1197.59" font-family="Helvetica,sans-Serif" font-size="32.00" fill="#29235c">customer_id &#160;&#160;&#160;</text>
<text text-anchor="start" x="387.44" y="-1198.59" font-family="Helvetica,sans-Serif" font-style="italic" font-size="32.00" fill="#29235c">INTEGER</text>
<polygon fill="#e7e2dd" stroke="transparent" points="167.55,-1117.39 167.55,-1177.39 540.55,-1177.39 540.55,-1117.39 167.55,-1117.39"/>
<polygon fill="none" stroke="#29235c" points="167.55,-1117.39 167.55,-1177.39 540.55,-1177.39 540.55,-1117.39 167.55,-1117.39"/>
<text text-anchor="start" x="178.55" y="-1137.59" font-family="Helvetica,sans-Serif" font-size="32.00" fill="#29235c">sale_date &#160;&#160;&#160;</text>
<text text-anchor="start" x="367.79" y="-1138.59" font-family="Helvetica,sans-Serif" font-style="italic" font-size="32.00" fill="#29235c">DATETIME</text>
<polygon fill="#e7e2dd" stroke="transparent" points="167.55,-1057.39 167.55,-1117.39 540.55,-1117.39 540.55,-1057.39 167.55,-1057.39"/>
<polygon fill="none" stroke="#29235c" points="167.55,-1057.39 167.55,-1117.39 540.55,-1117.39 540.55,-1057.39 167.55,-1057.39"/>
<text text-anchor="start" x="178.55" y="-1077.59" font-family="Helvetica,sans-Serif" font-size="32.00" fill="#29235c">sale_price &#160;&#160;&#160;</text>
<text text-anchor="start" x="387.34" y="-1078.59" font-family="Helvetica,sans-Serif" font-style="italic" font-size="32.00" fill="#29235c">INTEGER</text>
<polygon fill="none" stroke="#29235c" stroke-width="2" points="166.05,-1056.39 166.05,-1418.39 541.05,-1418.39 541.05,-1056.39 166.05,-1056.39"/>
</g>
<!-- Sale&#45;&gt;Car -->
<!-- Sale&#45;&gt;Car -->
<g id="edge18" class="edge">
<title>Sale:e&#45;&gt;Car:w</title>
<path fill="none" stroke="#29235c" stroke-width="3" d="M541.55,-1267.39C669.68,-1267.39 652.28,-1387.59 707.11,-1503.39 805.97,-1712.17 620.33,-2002.73 839.17,-2011.2"/>
<polygon fill="#29235c" stroke="#29235c" stroke-width="3" points="839.13,-2014.7 849.2,-2011.39 839.26,-2007.7 839.13,-2014.7"/>
<text text-anchor="middle" x="842.97" y="-2020.99" font-family="Helvetica,sans-Serif" font-size="32.00" fill="#29235c">*</text>
<text text-anchor="middle" x="532.66" y="-1238.59" font-family="Helvetica,sans-Serif" font-size="32.00" fill="#29235c">1</text>
</g>
<!-- Sale&#45;&gt;Customer -->
<!-- Sale&#45;&gt;Customer -->
<g id="edge20" class="edge">
<title>Sale:e&#45;&gt;Customer:w</title>
<path fill="none" stroke="#29235c" stroke-width="3" d="M541.55,-1207.39C728.07,-1207.39 728.3,-1402.15 908.09,-1409.19"/>
<polygon fill="#29235c" stroke="#29235c" stroke-width="3" points="908.13,-1412.69 918.2,-1409.39 908.27,-1405.69 908.13,-1412.69"/>
<text text-anchor="middle" x="911.97" y="-1418.99" font-family="Helvetica,sans-Serif" font-size="32.00" fill="#29235c">*</text>
<text text-anchor="middle" x="532.66" y="-1178.59" font-family="Helvetica,sans-Serif" font-size="32.00" fill="#29235c">1</text>
</g>
<!-- TestDrive -->
<g id="TestDrive" class="node">
<title>TestDrive</title>
<ellipse fill="none" stroke="black" stroke-width="0" cx="353.55" cy="-1727.39" rx="266.66" ry="214.92"/>
<polygon fill="#1d71b8" stroke="transparent" points="167.55,-1817.39 167.55,-1877.39 540.55,-1877.39 540.55,-1817.39 167.55,-1817.39"/>
<polygon fill="none" stroke="#29235c" points="167.55,-1817.39 167.55,-1877.39 540.55,-1877.39 540.55,-1817.39 167.55,-1817.39"/>
<text text-anchor="start" x="223.37" y="-1838.59" font-family="Helvetica,sans-Serif" font-weight="bold" font-size="32.00" fill="#ffffff"> &#160;&#160;&#160;&#160;&#160;&#160;TestDrive &#160;&#160;&#160;&#160;&#160;&#160;</text>
<polygon fill="#e7e2dd" stroke="transparent" points="167.55,-1757.39 167.55,-1817.39 540.55,-1817.39 540.55,-1757.39 167.55,-1757.39"/>
<polygon fill="none" stroke="#29235c" points="167.55,-1757.39 167.55,-1817.39 540.55,-1817.39 540.55,-1757.39 167.55,-1757.39"/>
<text text-anchor="start" x="178.55" y="-1778.59" font-family="Helvetica,sans-Serif" font-weight="bold" font-size="32.00" fill="#29235c">id</text>
<text text-anchor="start" x="203.44" y="-1778.59" font-family="Helvetica,sans-Serif" font-size="32.00" fill="#29235c"> &#160;&#160;&#160;</text>
<text text-anchor="start" x="387.34" y="-1778.59" font-family="Helvetica,sans-Serif" font-style="italic" font-size="32.00" fill="#29235c">INTEGER</text>
<polygon fill="#e7e2dd" stroke="transparent" points="167.55,-1697.39 167.55,-1757.39 540.55,-1757.39 540.55,-1697.39 167.55,-1697.39"/>
<polygon fill="none" stroke="#29235c" points="167.55,-1697.39 167.55,-1757.39 540.55,-1757.39 540.55,-1697.39 167.55,-1697.39"/>
<text text-anchor="start" x="178.15" y="-1717.59" font-family="Helvetica,sans-Serif" font-size="32.00" fill="#29235c">customer_id &#160;&#160;&#160;</text>
<text text-anchor="start" x="387.44" y="-1718.59" font-family="Helvetica,sans-Serif" font-style="italic" font-size="32.00" fill="#29235c">INTEGER</text>
<polygon fill="#e7e2dd" stroke="transparent" points="167.55,-1637.39 167.55,-1697.39 540.55,-1697.39 540.55,-1637.39 167.55,-1637.39"/>
<polygon fill="none" stroke="#29235c" points="167.55,-1637.39 167.55,-1697.39 540.55,-1697.39 540.55,-1637.39 167.55,-1637.39"/>
<text text-anchor="start" x="178.55" y="-1657.59" font-family="Helvetica,sans-Serif" font-size="32.00" fill="#29235c">car_id &#160;&#160;&#160;</text>
<text text-anchor="start" x="387.34" y="-1658.59" font-family="Helvetica,sans-Serif" font-style="italic" font-size="32.00" fill="#29235c">INTEGER</text>
<polygon fill="#e7e2dd" stroke="transparent" points="167.55,-1577.39 167.55,-1637.39 540.55,-1637.39 540.55,-1577.39 167.55,-1577.39"/>
<polygon fill="none" stroke="#29235c" points="167.55,-1577.39 167.55,-1637.39 540.55,-1637.39 540.55,-1577.39 167.55,-1577.39"/>
<text text-anchor="start" x="178.55" y="-1597.59" font-family="Helvetica,sans-Serif" font-size="32.00" fill="#29235c">date &#160;&#160;&#160;</text>
<text text-anchor="start" x="367.79" y="-1598.59" font-family="Helvetica,sans-Serif" font-style="italic" font-size="32.00" fill="#29235c">DATETIME</text>
<polygon fill="none" stroke="#29235c" stroke-width="2" points="166.05,-1576.39 166.05,-1878.39 541.05,-1878.39 541.05,-1576.39 166.05,-1576.39"/>
</g>
<!-- TestDrive&#45;&gt;Car -->
<!-- TestDrive&#45;&gt;Car -->
<g id="edge22" class="edge">
<title>TestDrive:e&#45;&gt;Car:w</title>
<path fill="none" stroke="#29235c" stroke-width="3" d="M541.55,-1667.39C743.16,-1667.39 647.5,-1999.73 838.95,-2011.09"/>
<polygon fill="#29235c" stroke="#29235c" stroke-width="3" points="839.1,-2014.59 849.2,-2011.39 839.3,-2007.6 839.1,-2014.59"/>
<text text-anchor="middle" x="842.97" y="-1982.59" font-family="Helvetica,sans-Serif" font-size="32.00" fill="#29235c">*</text>
<text text-anchor="middle" x="532.66" y="-1676.99" font-family="Helvetica,sans-Serif" font-size="32.00" fill="#29235c">1</text>
</g>
<!-- TestDrive&#45;&gt;Customer -->
<!-- TestDrive&#45;&gt;Customer -->
<g id="edge24" class="edge">
<title>TestDrive:e&#45;&gt;Customer:w</title>
<path fill="none" stroke="#29235c" stroke-width="3" d="M541.55,-1727.39C757.21,-1727.39 700.97,-1419.25 908.13,-1409.62"/>
<polygon fill="#29235c" stroke="#29235c" stroke-width="3" points="908.28,-1413.11 918.2,-1409.39 908.12,-1406.12 908.28,-1413.11"/>
<text text-anchor="middle" x="911.97" y="-1380.59" font-family="Helvetica,sans-Serif" font-size="32.00" fill="#29235c">*</text>
<text text-anchor="middle" x="532.66" y="-1736.99" font-family="Helvetica,sans-Serif" font-size="32.00" fill="#29235c">1</text>
</g>
</g>
</svg>
